<svg width="784" height="120" viewBox="0 0 784 120" fill="none" xmlns="http://www.w3.org/2000/svg">
<path d="M102.46 118.82C109.48 118.41 116 113.97 118.67 107.77C121.81 100.5 118.62 93.75 114.93 85.93C114.51 85.04 114.09 84.15 113.68 83.26C111.33 78.17 109 72.61 107.84 66.4C106.52 59.31 107.19 52.29 109.84 45.55C111.59 41.1 113.57 36.73 115.49 32.51C116.09 31.19 116.69 29.87 117.28 28.55C120.35 21.7 120.8 16.26 118.7 11.43C116.73 6.89 113.01 3.21 108.5 1.33C106.38 0.45 104.23 0 102.1 0C101.58 0 101.06 0.03 100.55 0.08C93.6597 0.78 88.7597 3.96 85.5797 9.8C83.3797 13.83 82.8097 17.98 83.8897 22.13C84.5497 24.65 85.7397 27.25 86.8997 29.69C87.1797 30.27 87.4497 30.85 87.7297 31.42C90.4997 37.21 93.3597 43.19 95.0597 49.79C96.5097 55.4 96.7697 60.46 95.8497 65.24C95.0297 69.55 91.3597 72.68 87.1297 72.68C85.5597 72.68 83.9997 72.24 82.6297 71.4C79.4697 69.48 76.3397 67.3 73.0397 64.73C63.4897 57.29 55.1597 48.24 48.2697 37.85C44.0697 31.51 40.4697 24.55 37.5797 17.17L37.3397 16.55C35.1897 11.05 33.4997 6.7 29.3897 3.66C26.2297 1.32 22.4597 0.08 18.4897 0.08C14.2997 0.08 10.2197 1.51 6.97973 4.11C2.94973 7.34 0.689727 11.6 0.0797271 17.12C-0.230273 19.92 0.319727 22.82 1.75973 25.97C2.45973 27.51 3.16973 29.05 3.87973 30.58C5.78973 34.73 7.76973 39.02 9.59973 43.34C11.8797 48.73 13.0197 54.25 12.9797 59.75C12.9397 65.73 11.4997 71.83 8.58973 78.41C7.50973 80.86 6.35973 83.3 5.25973 85.66C4.04973 88.25 2.78973 90.92 1.63973 93.56C-0.770273 99.09 -0.490273 104.38 2.49973 109.71C5.73973 115.48 12.0297 119.21 18.5297 119.21C19.9697 119.21 21.3897 119.03 22.7597 118.66C30.0797 116.71 35.9397 109.95 36.6897 102.57C37.0597 98.9 36.1897 95.16 33.8497 90.45L33.6097 89.97C30.3897 83.48 27.0597 76.77 25.1797 69.32C23.7297 63.59 23.4897 58.76 24.4197 54.12C25.3297 49.6 28.8197 46.56 33.0997 46.56C34.9497 46.56 36.8097 47.15 38.4797 48.26C42.1597 50.71 45.0997 52.81 47.7197 54.89C54.7897 60.48 61.2197 66.97 66.8397 74.18C74.0397 83.42 79.6397 93.47 83.4797 104.05C84.8397 107.79 86.1897 110.77 88.3897 113.15C92.7397 117.87 97.8497 118.86 101.37 118.86C101.73 118.86 102.09 118.85 102.45 118.83L102.46 118.82Z" fill="#0074D9"/>
<path d="M224.082 26H235.162V90.61H223.622L189.652 46.49C188.172 44.55 186.602 41.69 185.872 39.2L185.692 39.29C186.432 41.6 187.072 44.83 187.072 47.32V90.61H175.992V26H187.532L221.502 70.58C223.072 72.52 224.552 75.56 225.282 77.87H225.462C224.722 75.38 224.082 72.24 224.082 69.75V26Z" fill="#0074D9"/>
<path d="M306.942 36.34H266.232V54.71H304.902V63.57H266.232V80.28H306.942V90.62H255.162V26H306.942V36.34Z" fill="#0074D9"/>
<path d="M359.802 91.9C341.712 91.9 326.942 81.28 326.942 58.95C326.942 36.62 341.992 26 359.252 26H359.802C377.982 26.28 392.752 36.61 392.752 58.95C392.752 81.29 377.982 91.9 359.802 91.9ZM359.802 36.33H359.342C349.092 36.33 338.112 44.45 338.112 58.94C338.112 73.43 348.822 81.55 359.802 81.55C371.612 81.55 381.582 73.24 381.582 58.94C381.582 44.64 370.962 36.33 359.802 36.33Z" fill="#0074D9"/>
<path d="M423.562 71.22C423.932 77.96 430.302 81.56 440.172 81.65H440.722C451.702 81.65 458.442 78.33 458.442 71.22C458.442 57.84 413.582 69.28 413.582 45.75C413.582 31.81 426.132 26 440.162 26H440.992C455.202 26.28 466.192 31.81 466.932 44.46L456.412 45.38C455.952 39.38 451.242 36.33 441.002 36.33C430.762 36.33 424.662 39.65 424.662 45.65C424.662 57.83 469.522 46.39 469.522 70.85C469.522 79.8 463.802 91.99 440.352 91.99C418.942 91.99 413.212 81.93 412.752 72.05L423.552 71.22H423.562Z" fill="#0074D9"/>
<path d="M543.711 46.86C543.711 57.29 534.851 68.09 520.081 68.09H500.601V90.61H489.521V26H520.071C534.841 26 543.701 33.2 543.701 46.86H543.711ZM518.691 59.13C525.801 59.13 532.541 53.59 532.541 47.13C532.541 39.01 525.891 35.41 518.691 35.41H500.601V59.13H518.691Z" fill="#0074D9"/>
<path d="M603.502 26H588.082L563.712 90.61H575.712L581.162 76.3L595.652 37.07L610.142 76.3L615.502 90.61H627.862L603.502 26Z" fill="#0074D9"/>
<path d="M680.072 80.73C691.792 80.73 698.812 74.45 700.752 66.42L711.552 69.19C707.862 84.51 695.402 91.62 680.172 91.9H679.522C662.172 91.9 647.862 81.47 647.862 58.95C647.862 36.43 662.172 26 679.522 26H680.172C695.402 26.28 707.862 33.38 711.552 48.71L700.752 51.48C698.532 43.45 691.612 37.17 680.072 37.17C666.592 37.17 658.932 45.66 658.932 58.95C658.932 72.24 667.242 80.73 680.072 80.73Z" fill="#0074D9"/>
<path d="M783.333 36.34H742.623V54.71H781.293V63.57H742.623V80.28H783.333V90.62H731.553V26H783.333V36.34Z" fill="#0074D9"/>
</svg>
